<?xml version="1.0" encoding="UTF-8"?><svg id="Layer_1" xmlns="http://www.w3.org/2000/svg" viewBox="0 0 1456.53 221.72"><defs><style>.cls-1{fill:#191919;}</style></defs><path class="cls-1" d="M595.49,218.47l-.15-85.59h-64.78v-5.06c44.47-1.91,61.59-21.82,61.59-56.59,0-38.88-20.31-67.99-88.9-67.99l-185.99,.82c-8.59,.04-17.17,.92-25.51,2.94-48.4,11.68-76.41,53.34-76.41,103.97,0,59.95,39.22,107.26,105.03,107.26,32.12,0,57.89-11.27,75.87-29.76,.47-.48,.93-.96,1.39-1.45,.98-1.05,1.93-2.12,2.86-3.22,2.94-3.46,5.62-7.15,8.07-11.01,10.99-17.39,16.85-38.65,16.85-61.82s-5.86-44.39-16.85-61.79c-1.22-1.95-2.51-3.86-3.88-5.71h100.81c36.83,0,46.1,7.14,46.1,34.96s-9.27,35.04-46.1,35.04h-55v40h105v65h40Zm-210-107.63c0,50.71-27.68,67.37-65.02,67.37s-64.98-16.66-64.98-67.37,27.64-67.37,64.98-67.37,65.02,16.37,65.02,67.37Z"/><path class="cls-1" d="M204.19,156.71c0,19.64-8.61,35.05-25.55,45.86-16.64,10.58-40.18,15.91-69.93,15.91-32.39,0-57.36-5.71-74.17-16.95-17.04-11.35-27.14-29.17-30.05-52.98l-.31-2.62H45.09l.34,1.95c2.3,13.06,8.44,22.66,18.26,28.54,10.03,6.01,25.21,9.06,45.03,9.06,17.82,0,31.58-2.65,40.86-7.86,9.01-5,13.38-11.85,13.38-20.92,0-7.49-2.95-13.19-9.05-17.42-6.37-4.47-16.53-7.72-30.26-9.7l-36.22-5.34c-18.84-2.82-33.98-6.75-45.06-11.68-11.32-5-19.65-11.68-24.8-19.81-5.12-8.09-7.72-18.2-7.72-29.98,0-18.73,8.64-33.51,25.61-43.95C52.1,8.65,75.58,3.48,105.33,3.48c18.3,0,33.85,2.01,46.28,6.01,12.6,4.03,22.9,10.27,30.59,18.6,6.84,7.37,12.07,16.81,15.6,28.08,.89,2.85,1.37,5.81,1.63,8.78l.33,3.75h-38.8l-.68-1.74c-2.88-7.49-6.67-13.53-11.32-17.93-4.61-4.4-10.47-7.59-17.38-9.53-7.12-1.98-16.16-2.99-26.83-2.99-17.65,0-31.48,2.32-41.13,6.92-9.18,4.36-13.65,10.41-13.65,18.5,0,7.62,2.85,13.23,8.71,17.09,6.2,4.1,17.35,7.39,33.14,9.74l41.88,6.18c23.95,3.59,41.81,10.44,53.16,20.31,11.52,10.07,17.35,24,17.35,41.46Z"/><path class="cls-1" d="M605.34,3.48V43.48h80V218.48h40V43.48h80V3.48h-200Z"/><polygon class="cls-1" points="925.34 43.48 925.34 178.48 985.34 178.48 985.34 218.48 830.34 218.48 830.34 178.48 885.34 178.48 885.34 43.48 830.34 43.48 830.34 3.48 985.34 3.48 985.34 43.48 925.34 43.48"/><path class="cls-1" d="M1390.34,3.47V218.47h-40.38V99.84l-4.55,.02-51.34,98.51h-47.85l-50.91-98.53h-4.97v38.61c0,56.66-33.34,80.02-90,80.02s-90-23.36-90-80.02V3.47l39.9,.14,.1,129.86c0,33.61,9.05,45,50,45s50-11.39,50-45V3.47h40l75.74,146.58h9L1349.96,3.47h40.38Z"/><g><path class="cls-1" d="M1425.77,6.58h-6.23V23.48h-2.98V6.58h-6.23V3.67h15.44v2.91Z"/><path class="cls-1" d="M1450.34,3.67V23.48h-2.98V11.19h-.48l-5.33,10.66h-4.29l-5.33-10.66h-.48v12.29h-2.98V3.67h2.98l7.72,15.32h.48l7.72-15.32h2.98Z"/></g></svg>