<?xml version="1.0" encoding="UTF-8"?><svg id="Layer_1" xmlns="http://www.w3.org/2000/svg" xmlns:xlink="http://www.w3.org/1999/xlink" viewBox="0 0 16 16"><defs><style>.cls-1{fill:none;}.cls-2{clip-path:url(#clippath);}.cls-3{fill:#181818;}</style><clipPath id="clippath"><rect class="cls-1" x=".25" y="3.87" width="15.5" height="8.25"/></clipPath></defs><path class="cls-3" d="M9.63,8.01c0,.98-.54,1.31-1.26,1.31s-1.26-.32-1.26-1.31,.54-1.31,1.26-1.31,1.26,.32,1.26,1.31h0Zm4.07,2.09v-1.66h-1.26v-.1c.86-.04,1.19-.42,1.19-1.1,0-.75-.39-1.32-1.72-1.32l-3.61,.02c-.17,0-.33,.02-.5,.06-.94,.23-1.48,1.03-1.48,2.02,0,1.16,.76,2.08,2.04,2.08,.62,0,1.12-.22,1.47-.58,0,0,.02-.02,.03-.03,.02-.02,.04-.04,.06-.06,.06-.07,.11-.14,.16-.21,.21-.34,.33-.75,.33-1.2s-.11-.86-.33-1.2c-.02-.04-.05-.07-.08-.11h1.96c.71,0,.89,.14,.89,.68s-.18,.68-.89,.68h-1.07v.78h2.04v1.26h.78Z"/><g class="cls-2"><path class="cls-3" d="M6.11,8.9c0,.38-.17,.68-.5,.89-.32,.21-.78,.31-1.36,.31-.63,0-1.11-.11-1.44-.33-.33-.22-.53-.57-.58-1.03v-.05s.79,0,.79,0v.04c.05,.25,.17,.44,.36,.55,.19,.12,.49,.18,.87,.18,.35,0,.61-.05,.79-.15,.17-.1,.26-.23,.26-.41,0-.15-.06-.26-.18-.34-.12-.09-.32-.15-.59-.19l-.7-.1c-.37-.05-.66-.13-.87-.23-.22-.1-.38-.23-.48-.38-.1-.16-.15-.35-.15-.58,0-.36,.17-.65,.5-.85,.32-.2,.78-.3,1.36-.3,.35,0,.66,.04,.9,.12,.24,.08,.44,.2,.59,.36,.13,.14,.23,.33,.3,.54,.02,.06,.03,.11,.03,.17v.07s-.75,0-.75,0v-.03c-.07-.15-.14-.26-.23-.35-.09-.09-.2-.15-.34-.18-.14-.04-.31-.06-.52-.06-.34,0-.61,.04-.8,.13-.18,.08-.26,.2-.26,.36,0,.15,.06,.26,.17,.33,.12,.08,.34,.14,.64,.19l.81,.12c.46,.07,.81,.2,1.03,.39,.22,.2,.34,.47,.34,.8h0Z"/><path class="cls-3" d="M15.75,3.87H.25V12.13H15.75V3.87h0Zm-.49,.49v7.28H.73V4.36H15.26"/></g></svg>