<?xml version="1.0" encoding="UTF-8"?><svg id="Layer_1" xmlns="http://www.w3.org/2000/svg" viewBox="0 0 1080 575"><defs><style>.cls-1{fill:#f2f2f2;}</style></defs><path class="cls-1" d="M933.21,430.85l-.2-115.11h-87.12v-6.8c59.81-2.57,82.83-29.34,82.83-76.11,0-52.29-27.31-91.44-119.56-91.44l-250.13,1.1c-11.55,.05-23.09,1.24-34.31,3.95-65.09,15.71-102.76,71.74-102.76,139.83,0,80.62,52.75,144.25,141.25,144.25,43.2,0,77.85-15.16,102.03-40.02,.63-.65,1.25-1.29,1.87-1.95,1.32-1.41,2.6-2.85,3.85-4.33,3.95-4.65,7.56-9.62,10.85-14.81,14.78-23.39,22.66-51.98,22.66-83.14s-7.88-59.7-22.66-83.1c-1.64-2.62-3.38-5.19-5.22-7.68h135.58c49.53,0,62,9.6,62,47.02s-12.47,47.12-62,47.12h-73.97v53.79h141.21v87.42h53.79Zm-282.42-144.75c0,68.2-37.23,90.6-87.44,90.6s-87.39-22.41-87.39-90.6,37.17-90.6,87.39-90.6,87.44,22.02,87.44,90.6Z"/><path class="cls-1" d="M406.98,347.77c0,26.41-11.57,47.14-34.36,61.68-22.37,14.22-54.04,21.4-94.05,21.4-43.56,0-77.14-7.68-99.74-22.8-22.92-15.26-36.5-39.24-40.42-71.25l-.41-3.52h55l.46,2.62c3.1,17.56,11.35,30.48,24.56,38.38,13.49,8.08,33.9,12.19,60.56,12.19,23.97,0,42.47-3.57,54.95-10.57,12.12-6.73,18-15.94,18-28.13,0-10.07-3.96-17.74-12.17-23.43-8.57-6-22.24-10.38-40.69-13.05l-48.71-7.18c-25.33-3.79-45.7-9.08-60.6-15.71-15.22-6.73-26.43-15.71-33.35-26.64-6.88-10.88-10.39-24.47-10.39-40.32,0-25.19,11.62-45.06,34.45-59.1,22.37-13.68,53.95-20.63,93.96-20.63,24.61,0,45.52,2.71,62.24,8.08,16.95,5.42,30.8,13.82,41.15,25.01,9.19,9.91,16.23,22.61,20.97,37.77,1.2,3.83,1.85,7.81,2.19,11.81l.44,5.04h-52.17l-.91-2.34c-3.87-10.07-8.98-18.2-15.22-24.11-6.2-5.91-14.08-10.2-23.37-12.82-9.57-2.66-21.73-4.02-36.09-4.02-23.74,0-42.33,3.12-55.32,9.3-12.35,5.87-18.36,14-18.36,24.88,0,10.25,3.83,17.79,11.71,22.98,8.34,5.51,23.33,9.93,44.56,13.09l56.32,8.31c32.21,4.83,56.23,14.04,71.49,27.32,15.49,13.55,23.33,32.28,23.33,55.76Z"/><path class="cls-1" d="M1041.2,33.13v504.72H33.95V33.13h1007.25M1074.82-.49H.33V571.48H1074.82V-.49h0Z"/><g><path class="cls-1" d="M929.42,130.9h-8.38v22.72h-4.01v-22.72h-8.38v-3.92h20.76v3.92Z"/><path class="cls-1" d="M962.45,126.98v26.64h-4.01v-16.53h-.64l-7.17,14.34h-5.77l-7.17-14.34h-.64v16.53h-4.01v-26.64h4.01l10.38,20.61h.64l10.38-20.61h4.01Z"/></g></svg>